HIERARCHY
ROOT mixamorig:Hips
{
	OFFSET 0.000000 201.639420 0.000000
	CHANNELS 6 Xposition Yposition Zposition Xrotation Yrotation Zrotation
	JOINT mixamorig:Spine
	{
		OFFSET 0.006200 19.524994 -2.481800
		CHANNELS 3 Xrotation Yrotation Zrotation
		JOINT mixamorig:Spine1
		{
			OFFSET -0.000900 22.835007 -2.825400
			CHANNELS 3 Xrotation Yrotation Zrotation
			JOINT mixamorig:Spine2
			{
				OFFSET -0.020600 26.552490 -3.193300
				CHANNELS 3 Xrotation Yrotation Zrotation
				JOINT mixamorig:Neck
				{
					OFFSET -0.060000 30.701813 1.352200
					CHANNELS 3 Xrotation Yrotation Zrotation
					JOINT mixamorig:Head
					{
						OFFSET -0.087200 22.547607 3.670900
						CHANNELS 3 Xrotation Yrotation Zrotation
						JOINT mixamorig:HeadTop_End
						{
							OFFSET -0.830600 40.355194 7.893500
							CHANNELS 3 Xrotation Yrotation Zrotation
							End Site
							{
								OFFSET 0.000000 30.592346 0.000000
							}
						}
						JOINT mixamorig:RightEye
						{
							OFFSET -6.302100 18.118591 16.197100
							CHANNELS 3 Xrotation Yrotation Zrotation
							End Site
							{
								OFFSET 0.000000 30.592346 0.000000
							}
						}
						JOINT mixamorig:LeftEye
						{
							OFFSET 6.741500 18.382690 16.401899
							CHANNELS 3 Xrotation Yrotation Zrotation
							End Site
							{
								OFFSET 0.000000 30.592346 0.000000
							}
						}
					}
				}
				JOINT mixamorig:LeftShoulder
				{
					OFFSET 11.924900 18.230499 1.425400
					CHANNELS 3 Xrotation Yrotation Zrotation
					JOINT mixamorig:LeftArm
					{
						OFFSET 25.435989 -0.697632 -5.229300
						CHANNELS 3 Xrotation Yrotation Zrotation
						JOINT mixamorig:LeftForeArm
						{
							OFFSET 54.684776 0.000000 0.000000
							CHANNELS 3 Xrotation Yrotation Zrotation
							JOINT mixamorig:LeftHand
							{
								OFFSET 55.098175 0.000000 0.000000
								CHANNELS 3 Xrotation Yrotation Zrotation
								JOINT mixamorig:LeftHandMiddle1
								{
									OFFSET 23.369751 0.000000 0.000000
									CHANNELS 3 Xrotation Yrotation Zrotation
									JOINT mixamorig:LeftHandMiddle2
									{
										OFFSET 6.378677 0.000000 0.000000
										CHANNELS 3 Xrotation Yrotation Zrotation
										JOINT mixamorig:LeftHandMiddle3
										{
											OFFSET 6.148331 0.000000 0.000000
											CHANNELS 3 Xrotation Yrotation Zrotation
											JOINT mixamorig:LeftHandMiddle4
											{
												OFFSET 6.582504 0.000000 0.000000
												CHANNELS 3 Xrotation Yrotation Zrotation
												End Site
												{
													OFFSET -1.168900 6.395691 1.028606
												}
											}
										}
									}
								}
								JOINT mixamorig:LeftHandThumb1
								{
									OFFSET 7.235672 -3.848206 5.434273
									CHANNELS 3 Xrotation Yrotation Zrotation
									JOINT mixamorig:LeftHandThumb2
									{
										OFFSET 6.568451 -3.792297 3.792300
										CHANNELS 3 Xrotation Yrotation Zrotation
										JOINT mixamorig:LeftHandThumb3
										{
											OFFSET 6.063080 -3.500519 3.500518
											CHANNELS 3 Xrotation Yrotation Zrotation
											JOINT mixamorig:LeftHandThumb4
											{
												OFFSET 4.793182 -2.767334 2.767349
												CHANNELS 3 Xrotation Yrotation Zrotation
												End Site
												{
													OFFSET 0.101639 6.054260 1.275483
												}
											}
										}
									}
								}
								JOINT mixamorig:LeftHandIndex1
								{
									OFFSET 23.101074 -0.309540 4.992809
									CHANNELS 3 Xrotation Yrotation Zrotation
									JOINT mixamorig:LeftHandIndex2
									{
										OFFSET 6.226883 0.000000 0.000000
										CHANNELS 3 Xrotation Yrotation Zrotation
										JOINT mixamorig:LeftHandIndex3
										{
											OFFSET 6.094330 0.000000 0.000000
											CHANNELS 3 Xrotation Yrotation Zrotation
											JOINT mixamorig:LeftHandIndex4
											{
												OFFSET 5.482605 0.000000 0.000000
												CHANNELS 3 Xrotation Yrotation Zrotation
												End Site
												{
													OFFSET -1.427902 5.233032 0.797164
												}
											}
										}
									}
								}
								JOINT mixamorig:LeftHandRing1
								{
									OFFSET 22.299240 0.021149 -3.964172
									CHANNELS 3 Xrotation Yrotation Zrotation
									JOINT mixamorig:LeftHandRing2
									{
										OFFSET 6.321869 0.000000 0.000000
										CHANNELS 3 Xrotation Yrotation Zrotation
										JOINT mixamorig:LeftHandRing3
										{
											OFFSET 5.899796 0.000000 0.000000
											CHANNELS 3 Xrotation Yrotation Zrotation
											JOINT mixamorig:LeftHandRing4
											{
												OFFSET 6.517899 0.000000 0.000000
												CHANNELS 3 Xrotation Yrotation Zrotation
												End Site
												{
													OFFSET -1.637299 6.232208 0.980890
												}
											}
										}
									}
								}
								JOINT mixamorig:LeftHandPinky1
								{
									OFFSET 20.463791 -0.302338 -8.562233
									CHANNELS 3 Xrotation Yrotation Zrotation
									JOINT mixamorig:LeftHandPinky2
									{
										OFFSET 6.908646 0.000000 0.000000
										CHANNELS 3 Xrotation Yrotation Zrotation
										JOINT mixamorig:LeftHandPinky3
										{
											OFFSET 4.622849 0.000000 0.000000
											CHANNELS 3 Xrotation Yrotation Zrotation
											JOINT mixamorig:LeftHandPinky4
											{
												OFFSET 5.216080 0.000000 0.000000
												CHANNELS 3 Xrotation Yrotation Zrotation
												End Site
												{
													OFFSET -0.606308 5.116241 0.814926
												}
											}
										}
									}
								}
							}
						}
					}
				}
				JOINT mixamorig:RightShoulder
				{
					OFFSET -12.001300 18.284088 1.348900
					CHANNELS 3 Xrotation Yrotation Zrotation
					JOINT mixamorig:RightArm
					{
						OFFSET -25.308500 -0.751312 -5.164599
						CHANNELS 3 Xrotation Yrotation Zrotation
						JOINT mixamorig:RightForeArm
						{
							OFFSET -54.684429 0.000000 0.000000
							CHANNELS 3 Xrotation Yrotation Zrotation
							JOINT mixamorig:RightHand
							{
								OFFSET -55.150291 0.000000 0.000000
								CHANNELS 3 Xrotation Yrotation Zrotation
								JOINT mixamorig:RightHandMiddle1
								{
									OFFSET -23.317566 0.000000 0.000000
									CHANNELS 3 Xrotation Yrotation Zrotation
									JOINT mixamorig:RightHandMiddle2
									{
										OFFSET -6.378403 0.000000 0.000000
										CHANNELS 3 Xrotation Yrotation Zrotation
										JOINT mixamorig:RightHandMiddle3
										{
											OFFSET -6.148193 0.000000 0.000000
											CHANNELS 3 Xrotation Yrotation Zrotation
											JOINT mixamorig:RightHandMiddle4
											{
												OFFSET -6.583389 0.000000 0.000000
												CHANNELS 3 Xrotation Yrotation Zrotation
												End Site
												{
													OFFSET 1.171692 6.395905 1.029786
												}
											}
										}
									}
								}
								JOINT mixamorig:RightHandThumb1
								{
									OFFSET -7.190521 -3.860474 5.435846
									CHANNELS 3 Xrotation Yrotation Zrotation
									JOINT mixamorig:RightHandThumb2
									{
										OFFSET -6.567429 -3.791718 3.791708
										CHANNELS 3 Xrotation Yrotation Zrotation
										JOINT mixamorig:RightHandThumb3
										{
											OFFSET -6.062469 -3.500153 3.500166
											CHANNELS 3 Xrotation Yrotation Zrotation
											JOINT mixamorig:RightHandThumb4
											{
												OFFSET -4.792618 -2.767029 2.767022
												CHANNELS 3 Xrotation Yrotation Zrotation
												End Site
												{
													OFFSET -0.100327 6.053253 1.276754
												}
											}
										}
									}
								}
								JOINT mixamorig:RightHandIndex1
								{
									OFFSET -23.048981 -0.310791 4.992554
									CHANNELS 3 Xrotation Yrotation Zrotation
									JOINT mixamorig:RightHandIndex2
									{
										OFFSET -6.227539 0.000000 0.000000
										CHANNELS 3 Xrotation Yrotation Zrotation
										JOINT mixamorig:RightHandIndex3
										{
											OFFSET -6.095047 0.000000 0.000000
											CHANNELS 3 Xrotation Yrotation Zrotation
											JOINT mixamorig:RightHandIndex4
											{
												OFFSET -5.484772 0.000000 0.000000
												CHANNELS 3 Xrotation Yrotation Zrotation
												End Site
												{
													OFFSET 1.420593 5.237305 0.797056
												}
											}
										}
									}
								}
								JOINT mixamorig:RightHandRing1
								{
									OFFSET -22.246323 0.020569 -3.963762
									CHANNELS 3 Xrotation Yrotation Zrotation
									JOINT mixamorig:RightHandRing2
									{
										OFFSET -6.322128 0.000000 0.000000
										CHANNELS 3 Xrotation Yrotation Zrotation
										JOINT mixamorig:RightHandRing3
										{
											OFFSET -5.900024 0.000000 0.000000
											CHANNELS 3 Xrotation Yrotation Zrotation
											JOINT mixamorig:RightHandRing4
											{
												OFFSET -6.518356 0.000000 0.000000
												CHANNELS 3 Xrotation Yrotation Zrotation
												End Site
												{
													OFFSET 1.636398 6.232697 0.982186
												}
											}
										}
									}
								}
								JOINT mixamorig:RightHandPinky1
								{
									OFFSET -20.411011 -0.303314 -8.561701
									CHANNELS 3 Xrotation Yrotation Zrotation
									JOINT mixamorig:RightHandPinky2
									{
										OFFSET -6.907349 0.000000 0.000000
										CHANNELS 3 Xrotation Yrotation Zrotation
										JOINT mixamorig:RightHandPinky3
										{
											OFFSET -4.623840 0.000000 0.000000
											CHANNELS 3 Xrotation Yrotation Zrotation
											JOINT mixamorig:RightHandPinky4
											{
												OFFSET -5.218353 0.000000 0.000000
												CHANNELS 3 Xrotation Yrotation Zrotation
												End Site
												{
													OFFSET 0.602097 5.118835 0.816273
												}
											}
										}
									}
								}
							}
						}
					}
				}
			}
		}
	}
	JOINT mixamorig:LeftUpLeg
	{
		OFFSET 18.168400 -13.561905 -0.039000
		CHANNELS 3 Xrotation Yrotation Zrotation
		JOINT mixamorig:LeftLeg
		{
			OFFSET 0.577358 -80.825211 -3.695000
			CHANNELS 3 Xrotation Yrotation Zrotation
			JOINT mixamorig:LeftFoot
			{
				OFFSET -0.577356 -83.370262 -6.520700
				CHANNELS 3 Xrotation Yrotation Zrotation
				JOINT mixamorig:LeftToeBase
				{
					OFFSET 0.750401 -20.798306 25.135401
					CHANNELS 3 Xrotation Yrotation Zrotation
					JOINT mixamorig:LeftToe_End
					{
						OFFSET -0.000500 0.001200 19.917799
						CHANNELS 3 Xrotation Yrotation Zrotation
						End Site
						{
							OFFSET 0.000000 19.917805 0.000000
						}
					}
				}
			}
		}
	}
	JOINT mixamorig:RightUpLeg
	{
		OFFSET -18.162500 -13.585098 -0.041000
		CHANNELS 3 Xrotation Yrotation Zrotation
		JOINT mixamorig:RightLeg
		{
			OFFSET -0.595024 -80.945297 -3.631900
			CHANNELS 3 Xrotation Yrotation Zrotation
			JOINT mixamorig:RightFoot
			{
				OFFSET 0.595024 -83.218193 -6.561200
				CHANNELS 3 Xrotation Yrotation Zrotation
				JOINT mixamorig:RightToeBase
				{
					OFFSET -0.753601 -20.807106 25.115000
					CHANNELS 3 Xrotation Yrotation Zrotation
					JOINT mixamorig:RightToe_End
					{
						OFFSET 0.000299 0.001700 19.918200
						CHANNELS 3 Xrotation Yrotation Zrotation
						End Site
						{
							OFFSET 0.000000 19.918203 0.000000
						}
					}
				}
			}
		}
	}
}
MOTION
Frames: 5
Frame Time: 0.033333
-49.558197 258.643677 -8.467231 -1.011603 -2.959514 -2.550267 -3.334982 0.717792 -0.360702 -6.678483 1.321993 -0.009114 -6.678486 1.321993 -0.009114 -32.138485 -5.448507 1.745262 -5.576280 -0.955444 -5.294263 -0.000001 0.000000 0.000000 -0.000001 0.000000 0.000000 -0.000001 0.000000 0.000000 6.971767 9.918517 32.667026 -97.545866 -50.457507 -41.523445 -20.561497 -31.862583 12.167588 22.903434 -5.434067 -13.960266 -7.057142 -4.106615 -72.543972 -5.071193 -4.491944 -69.918413 0.000002 0.000005 0.000001 0.000002 0.000000 0.000002 -23.505077 8.724705 4.055225 -11.818408 8.158923 13.633702 0.000010 0.000006 -0.000003 0.000003 -0.000000 0.000000 -0.793924 -9.944903 -73.989868 -8.742882 -2.825315 -82.562295 -0.000000 0.000005 -0.000004 0.000001 -0.000001 -0.000002 -10.868853 6.242576 -70.785629 -0.409510 -6.819491 -77.462480 -0.000000 -0.000000 0.000002 -0.000000 -0.000001 0.000001 -15.058539 6.363916 -69.029081 0.828515 -8.182915 -68.648681 0.000008 -0.000011 0.000004 0.000004 -0.000000 -0.000000 0.012366 -11.929094 -38.635529 -103.043287 37.367214 61.278476 -19.647720 32.070392 -19.393050 36.713418 8.458346 11.964464 -13.048180 1.841493 85.918240 -5.617168 1.089173 83.764573 0.000005 -0.000002 -0.000006 0.000003 -0.000000 -0.000000 -17.327350 6.468815 -26.575911 3.045362 -20.333169 1.155688 -0.000002 0.000001 -0.000002 -0.000002 -0.000000 0.000001 -8.188790 4.701082 83.339776 -5.502047 0.854589 81.248884 -0.000005 -0.000004 0.000001 -0.000002 0.000000 0.000001 -13.641736 -7.095347 77.489302 0.022879 7.034027 74.817236 -0.000003 -0.000014 -0.000003 -0.000001 0.000001 -0.000001 -17.843779 -11.691202 75.848629 1.770433 11.625094 63.783182 0.000010 0.000013 -0.000005 -0.000002 0.000000 -0.000003 -37.878453 1.584960 -1.358656 47.902907 6.485858 -2.173313 33.440927 0.083680 0.968812 0.451012 -0.007555 -0.004902 0.000001 0.000000 -0.000001 -48.020062 -15.534434 -25.314278 95.885365 16.251928 -7.454908 28.469282 2.823681 7.893362 -0.000001 -0.000000 0.000001 -0.000000 0.000000 -0.000000 
-54.274654 260.600037 -8.078375 -1.561823 -0.906041 -3.280624 -3.383000 0.480232 -0.410603 -6.770878 0.845302 -0.135447 -6.770878 0.845301 -0.135447 -29.973681 -5.996093 2.324398 -7.994728 -2.296237 -4.192731 0.000000 0.000000 0.000000 0.000000 0.000000 0.000000 0.000000 0.000000 0.000000 6.234800 10.499532 32.342377 -95.127077 -49.415596 -41.933349 -19.669008 -33.838028 10.598085 21.542794 -4.363577 -11.500299 -7.057147 -4.106621 -72.543986 -5.071194 -4.491940 -69.918427 0.000003 0.000002 -0.000002 -0.000002 0.000001 -0.000001 -23.505075 8.724687 4.055219 -11.818401 8.158954 13.633716 0.000008 0.000007 -0.000004 0.000000 0.000000 0.000001 -0.793915 -9.944919 -73.989875 -8.742901 -2.825331 -82.562316 -0.000002 0.000004 -0.000005 -0.000001 0.000000 0.000000 -10.868870 6.242554 -70.785608 -0.409521 -6.819492 -77.462446 -0.000002 -0.000001 0.000006 -0.000000 -0.000001 -0.000000 -15.058545 6.363913 -69.029095 0.828508 -8.182930 -68.648695 0.000003 -0.000010 0.000004 0.000002 -0.000001 -0.000004 -0.625335 -10.941888 -37.570330 -101.520920 35.735577 60.129441 -20.506084 30.109543 -15.306005 33.389629 12.971963 11.126785 -12.639104 1.793370 80.653975 -5.074676 1.000173 77.610005 0.000006 -0.000003 -0.000007 0.000002 -0.000001 -0.000001 -13.695908 7.172631 -19.951107 5.282257 -19.753988 9.365814 -0.000003 0.000002 0.000001 0.000000 0.000001 0.000001 -8.256364 4.708437 84.210065 -5.163645 0.792013 77.813429 -0.000009 -0.000002 0.000002 -0.000000 -0.000003 -0.000000 -13.454341 -7.139955 75.507454 1.204093 6.544648 59.885343 -0.000002 -0.000011 0.000004 0.000000 0.000002 -0.000001 -17.468936 -11.795446 72.429074 5.358529 8.547765 46.470206 0.000004 0.000010 -0.000005 -0.000003 0.000000 -0.000001 -36.322567 3.400463 -0.780620 49.906413 4.101056 -1.686825 33.562443 0.580205 2.746344 0.956532 -0.007291 -0.004841 -0.000001 0.000000 -0.000000 -49.096025 -15.025718 -26.876417 96.832138 15.398680 -6.320179 28.717291 2.378521 8.685244 -0.000001 -0.000001 0.000002 0.000000 0.000000 -0.000001 
-58.794029 262.123230 -7.749260 -2.237486 0.366309 -3.445674 -3.344587 0.253527 -0.501105 -6.691296 0.394103 -0.318302 -6.691292 0.394103 -0.318299 -28.219582 -5.928899 2.796110 -9.337034 -3.083095 -3.202803 -0.000001 0.000000 -0.000000 -0.000001 0.000000 -0.000000 -0.000001 0.000000 -0.000000 5.618755 11.039778 32.079356 -91.255678 -48.202827 -40.372364 -19.068092 -35.599472 9.137547 20.024076 -3.575438 -9.264700 -7.057143 -4.106607 -72.543972 -5.071177 -4.491942 -69.918427 0.000002 0.000002 -0.000000 -0.000003 -0.000001 -0.000002 -23.505085 8.724698 4.055233 -11.818409 8.158949 13.633710 0.000013 0.000005 -0.000004 0.000001 -0.000000 0.000000 -0.793920 -9.944907 -73.989875 -8.742881 -2.825308 -82.562309 -0.000003 0.000001 -0.000006 -0.000000 0.000002 -0.000002 -10.868871 6.242562 -70.785608 -0.409503 -6.819509 -77.462446 -0.000000 -0.000001 -0.000000 -0.000001 -0.000000 -0.000000 -15.058537 6.363918 -69.029095 0.828518 -8.182941 -68.648695 0.000003 -0.000009 0.000005 -0.000002 0.000001 0.000001 -0.673995 -9.086336 -36.380473 -99.253270 36.012118 55.937924 -22.591293 25.206617 -11.083872 28.960702 17.070876 9.912555 -11.961795 1.627021 71.735961 -4.026654 0.647688 65.216818 0.000005 -0.000004 -0.000005 0.000005 0.000000 -0.000000 -9.113492 8.949944 -12.164129 6.581890 -16.779852 18.226932 -0.000003 0.000004 -0.000003 -0.000001 0.000001 0.000003 -7.847521 4.647928 78.896922 -3.455358 0.123082 59.433212 -0.000008 -0.000003 -0.000002 0.000002 0.000001 0.000001 -12.889485 -7.316983 69.413956 2.211213 5.775852 45.085321 -0.000005 -0.000017 -0.000001 0.000000 -0.000001 0.000003 -16.643253 -12.113009 64.641662 7.908728 4.149242 36.170189 0.000005 0.000009 -0.000007 0.000004 -0.000001 -0.000005 -34.862512 5.348501 -0.313092 51.519755 2.853146 -1.281024 33.531779 0.968738 4.452649 1.447842 -0.006829 -0.004789 0.000003 -0.000000 0.000000 -49.280296 -13.865129 -27.317005 96.666629 15.377136 -5.109184 29.429687 1.263016 8.837677 -0.000002 0.000000 0.000001 -0.000000 0.000000 0.000000 
-63.006092 263.222168 -7.319732 -2.475232 1.011423 -3.247666 -3.248885 0.102305 -0.571028 -6.498462 0.102934 -0.452819 -6.498459 0.102934 -0.452818 -26.992732 -5.567259 3.014731 -10.553039 -3.515916 -2.260319 0.000002 0.000000 -0.000000 0.000002 0.000000 -0.000000 0.000002 0.000000 -0.000000 5.083428 11.528297 31.879986 -85.733566 -46.344469 -36.316925 -18.997580 -38.340099 7.917977 17.807657 -2.438379 -7.676942 -7.057152 -4.106621 -72.543965 -5.071172 -4.491928 -69.918447 0.000002 0.000003 0.000004 -0.000000 0.000000 0.000002 -23.505083 8.724683 4.055223 -11.818410 8.158943 13.633704 0.000008 0.000005 -0.000004 -0.000002 -0.000000 -0.000000 -0.793928 -9.944905 -73.989862 -8.742892 -2.825306 -82.562302 0.000003 0.000005 -0.000005 -0.000002 -0.000000 -0.000003 -10.868860 6.242565 -70.785601 -0.409507 -6.819500 -77.462446 -0.000001 0.000000 0.000003 -0.000000 -0.000000 -0.000000 -15.058542 6.363910 -69.029095 0.828515 -8.182941 -68.648688 0.000004 -0.000011 0.000004 0.000001 0.000001 0.000002 -1.670749 -8.297847 -34.644765 -95.696175 37.063209 51.476773 -22.746996 22.604738 -8.643505 24.840167 17.891114 7.886770 -10.848856 1.313275 54.350691 -3.549164 0.764250 53.364654 0.000004 -0.000003 -0.000004 0.000001 0.000001 0.000003 -10.183925 9.660083 -9.895877 4.639496 -14.639409 16.716594 -0.000004 -0.000001 0.000001 -0.000002 0.000001 0.000000 -7.393535 5.513523 57.162130 -2.527828 -0.137086 42.911753 -0.000007 -0.000003 -0.000000 0.000003 -0.000001 -0.000002 -11.926240 -7.784793 58.374676 2.730313 5.169402 35.778536 -0.000002 -0.000014 0.000003 0.000001 -0.000002 0.000001 -15.236576 -12.984132 53.605811 7.903614 2.497095 28.990181 0.000005 0.000014 -0.000001 -0.000002 0.000001 -0.000000 -33.502484 7.004404 -0.199882 51.727174 2.738168 -0.888544 33.857118 1.241689 5.843840 1.868305 -0.006269 -0.004754 0.000007 0.000000 -0.000000 -49.208941 -13.054349 -27.249210 95.071725 16.855944 -3.806257 30.875563 -1.161790 8.837350 -0.000002 -0.000000 0.000001 -0.000000 -0.000000 0.000000 
-66.963341 263.878906 -6.854878 -2.589200 1.559762 -3.013556 -3.144826 -0.023953 -0.598959 -6.289440 -0.129004 -0.554381 -6.289442 -0.129004 -0.554381 -26.396583 -4.992406 2.694242 -10.974937 -3.748658 -1.298038 -0.000002 0.000000 -0.000000 -0.000002 0.000000 -0.000000 -0.000002 0.000000 -0.000000 4.691870 12.021659 31.708665 -81.212418 -44.641707 -32.526488 -19.263075 -39.779356 6.785719 15.600473 -1.946018 -6.038801 -7.057146 -4.106601 -72.543979 -5.071181 -4.491955 -69.918440 0.000003 0.000003 0.000002 -0.000001 0.000001 0.000001 -23.505087 8.724692 4.055217 -11.818393 8.158943 13.633705 0.000012 0.000007 -0.000004 0.000006 0.000001 -0.000000 -0.793941 -9.944904 -73.989875 -8.742898 -2.825298 -82.562309 0.000001 0.000004 -0.000005 -0.000002 0.000000 0.000003 -10.868861 6.242582 -70.785629 -0.409515 -6.819512 -77.462466 -0.000002 0.000000 -0.000000 -0.000003 -0.000001 -0.000003 -15.058545 6.363931 -69.029081 0.828507 -8.182932 -68.648667 0.000008 -0.000012 0.000004 -0.000005 -0.000001 -0.000001 -2.359016 -7.587766 -32.716767 -89.346476 37.286341 45.357586 -18.969638 23.732942 -8.478525 23.696715 16.513234 8.228978 -9.510683 0.810129 32.538553 -2.883897 1.567139 37.485256 0.000004 -0.000001 -0.000005 0.000005 0.000001 -0.000002 -14.993843 9.511352 -8.442187 1.217466 -12.647911 10.983947 -0.000004 0.000004 -0.000001 -0.000002 -0.000003 0.000000 -6.367294 8.665396 33.543797 -1.809912 0.642268 28.207196 -0.000008 -0.000002 -0.000001 0.000004 0.000000 0.000001 -10.899207 -8.589385 44.895940 3.113603 4.546604 27.259396 -0.000002 -0.000012 0.000003 -0.000001 -0.000001 -0.000001 -13.682762 -14.612864 41.782692 7.453615 2.195092 23.230394 0.000004 0.000012 -0.000001 -0.000001 -0.000002 0.000001 -32.228272 8.201028 -0.195976 51.130304 3.194954 -0.550343 34.343499 1.454387 7.030157 2.161211 -0.005786 -0.004744 0.000002 -0.000001 0.000000 -48.447293 -13.540585 -26.769390 91.478342 16.010571 -2.980843 32.544270 -2.118481 8.015684 -0.000002 -0.000001 0.000003 -0.000003 -0.000000 0.000002 
